HIERARCHY
ROOT Hips
{
 OFFSET 0.000000 0.000000 0.000000
 CHANNELS 6 Xposition Yposition Zposition Yrotation Xrotation Zrotation
 JOINT Chest
 {
  OFFSET 0.000000 9.585900 0.002600
  CHANNELS 3 Yrotation Xrotation Zrotation
  JOINT Chest2
  {
   OFFSET 0.000000 9.601200 -0.005300
   CHANNELS 3 Yrotation Xrotation Zrotation
   JOINT Chest3
   {
    OFFSET 0.000000 9.561800 0.000000
    CHANNELS 3 Yrotation Xrotation Zrotation
    JOINT Chest4
    {
     OFFSET 0.000000 9.552100 0.000000
     CHANNELS 3 Yrotation Xrotation Zrotation
     JOINT Neck
     {
      OFFSET 0.000000 14.453000 0.000000
      CHANNELS 3 Yrotation Xrotation Zrotation
      JOINT Head
      {
       OFFSET 0.000000 8.936500 -0.011300
       CHANNELS 3 Yrotation Xrotation Zrotation
       End Site
       {
        OFFSET 0.000000 17.073600 -0.006000
       }
      }
     }
     JOINT RightCollar
     {
      OFFSET -2.921100 9.558500 0.000000
      CHANNELS 3 Yrotation Xrotation Zrotation
      JOINT RightShoulder
      {
       OFFSET -13.519700 0.000000 0.000000
       CHANNELS 3 Yrotation Xrotation Zrotation
       JOINT RightElbow
       {
        OFFSET 0.000000 -29.696600 0.000000
        CHANNELS 3 Yrotation Xrotation Zrotation
        JOINT RightWrist
        {
         OFFSET 0.000000 -24.004700 0.000000
         CHANNELS 3 Yrotation Xrotation Zrotation
         End Site
         {
          OFFSET 0.000000 -17.728500 0.000000
         }
        }
       }
      }
     }
     JOINT LeftCollar
     {
      OFFSET 2.921100 9.558500 0.000000
      CHANNELS 3 Yrotation Xrotation Zrotation
      JOINT LeftShoulder
      {
       OFFSET 13.519700 0.000000 0.000000
       CHANNELS 3 Yrotation Xrotation Zrotation
       JOINT LeftElbow
       {
        OFFSET 0.000000 -29.696600 0.000000
        CHANNELS 3 Yrotation Xrotation Zrotation
        JOINT LeftWrist
        {
         OFFSET 0.000000 -24.004700 0.000000
         CHANNELS 3 Yrotation Xrotation Zrotation
         End Site
         {
          OFFSET 0.000000 -17.728500 0.000000
         }
        }
       }
      }
     }
    }
   }
  }
 }
 JOINT RightHip
 {
  OFFSET -7.771700 -0.012900 -0.001300
  CHANNELS 3 Yrotation Xrotation Zrotation
  JOINT RightKnee
  {
   OFFSET 0.000000 -40.869800 0.001200
   CHANNELS 3 Yrotation Xrotation Zrotation
   JOINT RightAnkle
   {
    OFFSET 0.000000 -39.717900 0.002100
    CHANNELS 3 Yrotation Xrotation Zrotation
    JOINT RightToe
    {
     OFFSET 0.000000 -4.965400 11.033500
     CHANNELS 3 Yrotation Xrotation Zrotation
     End Site
     {
      OFFSET 0.000000 -1.423100 5.872300
     }
    }
   }
  }
 }
 JOINT LeftHip
 {
  OFFSET 7.771700 -0.012900 -0.001300
  CHANNELS 3 Yrotation Xrotation Zrotation
  JOINT LeftKnee
  {
   OFFSET 0.000000 -40.869800 0.001200
   CHANNELS 3 Yrotation Xrotation Zrotation
   JOINT LeftAnkle
   {
    OFFSET 0.000000 -39.717900 0.002100
    CHANNELS 3 Yrotation Xrotation Zrotation
    JOINT LeftToe
    {
     OFFSET 0.000000 -4.965400 11.033500
     CHANNELS 3 Yrotation Xrotation Zrotation
     End Site
     {
      OFFSET 0.000000 -1.423100 5.872300
     }
    }
   }
  }
 }
}
MOTION
Frames: 6
Frame Time: 0.008333
0.000000 85.388000 0.000000 0.000000 -5.767877 0.000000 0.000000 11.653817 0.000000 0.000000 -5.885947 0.000000 0.000000 -0.000000 0.000000 0.000000 -0.000000 0.000000 0.000000 12.528835 0.000000 0.000000 0.711642 0.000000 0.000000 -0.000000 0.000000 0.000000 0.000000 -90.000000 0.000000 -2.309062 0.000000 0.000000 2.309062 0.000000 0.000000 -0.000000 0.000000 0.000000 -0.000000 90.000000 0.000000 -2.309062 0.000000 0.000000 2.309062 0.000000 0.000000 8.520406 0.000000 0.000000 1.905762 0.000000 -0.000000 -4.658285 0.000000 0.000000 -0.000000 0.000000 0.000000 8.520406 0.000000 0.000000 1.905762 0.000000 -0.000000 -4.658285 0.000000 0.000000 -0.000000 0.000000
-23.801692 46.950049 27.136320 176.615981 -28.331915 -4.255263 -0.228774 18.410760 2.334050 -0.136817 2.130556 0.290388 -0.141518 3.495088 0.492547 -0.467234 16.047467 2.219194 -4.505643 21.503891 0.893184 -8.573460 4.313549 2.919558 -1.244270 1.923651 -4.619968 -12.070671 -16.828186 -13.011285 -98.836073 -47.121695 139.061029 -3.726879 1.642334 -26.438593 -2.185111 -0.865791 4.277765 5.816257 -15.827532 10.792706 76.262903 -38.164112 -122.934868 1.982588 6.175850 7.378831 4.881312 -58.171646 -9.514527 -165.069077 80.314486 -157.811994 -6.728413 -12.444607 -1.544084 0.054461 -0.298302 -0.000274 -6.543432 -59.705107 14.628327 -118.016463 81.336143 -121.572929 6.539438 -8.058475 3.286075 0.039616 0.308630 -0.006416
-23.791634 46.953661 27.131973 176.575179 -28.325799 -4.287042 -0.218931 18.418247 2.367928 -0.126650 2.127698 0.290946 -0.149856 3.498392 0.491430 -0.465792 16.047223 2.222264 -4.533272 21.489452 0.886974 -8.605482 4.272249 2.906917 -1.249606 1.934097 -4.623883 -12.123621 -16.842408 -12.955698 -98.987051 -47.033103 139.249843 -3.725480 1.676624 -26.395447 -2.195615 -0.864466 4.285919 5.876055 -15.863030 10.754591 76.452703 -38.022000 -123.156155 2.005645 6.193411 7.410957 4.829849 -58.176698 -9.423170 -165.095384 80.323974 -157.809055 -6.730234 -12.442835 -1.577332 0.065800 -0.302587 0.008318 -6.605925 -59.705653 14.725773 -118.133996 81.325925 -121.662184 6.563288 -8.084353 3.245493 0.039432 0.312503 0.003179
-23.786012 46.957372 27.126241 176.539689 -28.317623 -4.292976 -0.258747 18.441116 2.349060 -0.086787 2.112090 0.300401 -0.160269 3.501515 0.489961 -0.435961 16.036535 2.227478 -4.611475 21.468760 0.882636 -8.602363 4.237623 2.884269 -1.270701 1.954344 -4.623541 -12.173743 -16.858092 -12.905382 -99.156925 -46.937610 139.442478 -3.725375 1.701417 -26.336711 -2.222910 -0.857393 4.303264 5.949948 -15.914077 10.690565 76.597693 -37.875221 -123.345841 2.036053 6.208276 7.417809 4.819908 -58.184329 -9.382118 -165.079264 80.327085 -157.781830 -6.716224 -12.432711 -1.583849 0.059009 -0.311745 0.005294 -6.653913 -59.703934 14.775308 -118.281505 81.333061 -121.793272 6.578119 -8.113436 3.218078 0.037841 0.319261 -0.005034
-23.780942 46.961032 27.120266 176.509814 -28.303977 -4.297104 -0.253928 18.438369 2.352852 -0.102049 2.117735 0.296310 -0.152044 3.497074 0.492049 -0.419145 16.030137 2.231614 -4.661104 21.449280 0.877370 -8.624312 4.202348 2.871821 -1.271965 1.963044 -4.624658 -12.254636 -16.858019 -12.847688 -99.331243 -46.844578 139.647096 -3.723140 1.708936 -26.261322 -2.303640 -0.829035 4.345564 6.101301 -15.981727 10.548162 76.699932 -37.753583 -123.509912 2.075529 6.209816 7.394172 4.815596 -58.193506 -9.355697 -165.080098 80.332538 -157.772145 -6.693510 -12.431594 -1.591808 0.057443 -0.312129 0.004267 -6.702267 -59.709470 14.816396 -118.418484 81.334549 -121.912325 6.603148 -8.137007 3.182420 0.035108 0.323102 -0.010307
-23.775569 46.964875 27.113888 176.478878 -28.288990 -4.301563 -0.250753 18.435592 2.354435 -0.102154 2.116667 0.296740 -0.152123 3.495376 0.492736 -0.457017 16.036236 2.230756 -4.647907 21.422469 0.863532 -8.661208 4.169685 2.863674 -1.250908 1.987049 -4.632317 -12.317051 -16.880161 -12.782072 -99.515838 -46.754381 139.862203 -3.713066 1.697975 -26.174645 -2.261187 -0.835401 4.345852 6.134665 -15.990584 10.520506 76.860345 -37.551191 -123.722440 2.121346 6.192129 7.338563 4.817095 -58.205441 -9.325892 -165.069120 80.336689 -157.752861 -6.681232 -12.427997 -1.594614 0.056557 -0.312984 0.005009 -6.754067 -59.715797 14.863968 -118.573990 81.338958 -122.054063 6.625198 -8.163440 3.151242 0.035737 0.325128 -0.013066
